<svg width="100" height="81" viewBox="0 0 100 81" fill="none" xmlns="http://www.w3.org/2000/svg">
<rect width="100" height="81" fill="white"/>
<path d="M41.284 64C41 64 40.778 63.926 40.618 63.778C40.462 63.626 40.384 63.416 40.384 63.148V60.634C40.384 60.374 40.46 60.17 40.612 60.022C40.764 59.874 40.976 59.8 41.248 59.8H42.088C42.536 59.8 42.922 59.886 43.246 60.058C43.574 60.226 43.826 60.468 44.002 60.784C44.178 61.1 44.266 61.474 44.266 61.906C44.266 62.338 44.178 62.712 44.002 63.028C43.83 63.34 43.58 63.58 43.252 63.748C42.924 63.916 42.536 64 42.088 64H41.284ZM42.028 63.466C42.54 63.466 42.924 63.336 43.18 63.076C43.44 62.812 43.57 62.422 43.57 61.906C43.57 61.39 43.44 61 43.18 60.736C42.92 60.468 42.536 60.334 42.028 60.334H41.344C41.256 60.334 41.188 60.362 41.14 60.418C41.092 60.474 41.068 60.55 41.068 60.646V63.154C41.068 63.25 41.092 63.326 41.14 63.382C41.188 63.438 41.256 63.466 41.344 63.466H42.028ZM46.5326 64.06C46.1846 64.06 45.8786 63.996 45.6146 63.868C45.3506 63.736 45.1466 63.554 45.0026 63.322C44.8626 63.09 44.7926 62.826 44.7926 62.53C44.7926 62.234 44.8626 61.97 45.0026 61.738C45.1466 61.506 45.3506 61.326 45.6146 61.198C45.8786 61.066 46.1846 61 46.5326 61C46.8806 61 47.1866 61.066 47.4506 61.198C47.7146 61.326 47.9166 61.506 48.0566 61.738C48.2006 61.97 48.2726 62.234 48.2726 62.53C48.2726 62.826 48.2006 63.09 48.0566 63.322C47.9166 63.554 47.7146 63.736 47.4506 63.868C47.1866 63.996 46.8806 64.06 46.5326 64.06ZM46.5326 63.52C46.8566 63.52 47.1146 63.432 47.3066 63.256C47.4986 63.08 47.5946 62.838 47.5946 62.53C47.5946 62.222 47.4986 61.98 47.3066 61.804C47.1146 61.628 46.8566 61.54 46.5326 61.54C46.2046 61.54 45.9446 61.628 45.7526 61.804C45.5646 61.98 45.4706 62.222 45.4706 62.53C45.4706 62.838 45.5646 63.08 45.7526 63.256C45.9446 63.432 46.2046 63.52 46.5326 63.52ZM50.4038 64.06C49.8878 64.06 49.4818 63.924 49.1858 63.652C48.8898 63.38 48.7418 63.004 48.7418 62.524C48.7418 62.052 48.8898 61.68 49.1858 61.408C49.4818 61.136 49.8878 61 50.4038 61C50.6918 61 50.9498 61.046 51.1778 61.138C51.4058 61.23 51.5858 61.36 51.7178 61.528C51.7618 61.584 51.7838 61.64 51.7838 61.696C51.7838 61.788 51.7358 61.868 51.6398 61.936C51.5958 61.968 51.5458 61.984 51.4898 61.984C51.3778 61.984 51.2818 61.94 51.2018 61.852C51.1098 61.752 50.9958 61.676 50.8598 61.624C50.7238 61.568 50.5718 61.54 50.4038 61.54C50.0918 61.54 49.8498 61.626 49.6778 61.798C49.5058 61.97 49.4198 62.212 49.4198 62.524C49.4198 62.84 49.5058 63.086 49.6778 63.262C49.8498 63.434 50.0918 63.52 50.4038 63.52C50.7518 63.52 51.0418 63.408 51.2738 63.184C51.3698 63.088 51.4638 63.04 51.5558 63.04C51.6238 63.04 51.6818 63.062 51.7298 63.106C51.8138 63.17 51.8558 63.248 51.8558 63.34C51.8558 63.408 51.8298 63.466 51.7778 63.514C51.5898 63.702 51.3838 63.84 51.1598 63.928C50.9398 64.016 50.6878 64.06 50.4038 64.06ZM54.3834 64.054C54.2794 64.054 54.1974 64.026 54.1374 63.97C54.0774 63.914 54.0474 63.836 54.0474 63.736V61.552C54.0474 60.984 54.2094 60.54 54.5334 60.22C54.8574 59.9 55.3074 59.74 55.8834 59.74C56.2594 59.74 56.5854 59.814 56.8614 59.962C57.1374 60.106 57.3474 60.314 57.4914 60.586C57.6394 60.858 57.7134 61.18 57.7134 61.552V63.736C57.7134 63.836 57.6834 63.914 57.6234 63.97C57.5634 64.026 57.4814 64.054 57.3774 64.054C57.2734 64.054 57.1894 64.026 57.1254 63.97C57.0614 63.91 57.0294 63.832 57.0294 63.736V62.632H54.7314V63.736C54.7314 63.832 54.6994 63.91 54.6354 63.97C54.5714 64.026 54.4874 64.054 54.3834 64.054ZM57.0294 62.098V61.534C57.0294 61.126 56.9314 60.816 56.7354 60.604C56.5434 60.392 56.2594 60.286 55.8834 60.286C55.5034 60.286 55.2154 60.392 55.0194 60.604C54.8274 60.812 54.7314 61.122 54.7314 61.534V62.098H57.0294ZM58.8265 60.538C58.6985 60.538 58.5925 60.502 58.5085 60.43C58.4285 60.354 58.3885 60.258 58.3885 60.142C58.3885 60.026 58.4285 59.932 58.5085 59.86C58.5925 59.784 58.6985 59.746 58.8265 59.746C58.9545 59.746 59.0605 59.784 59.1445 59.86C59.2285 59.932 59.2705 60.026 59.2705 60.142C59.2705 60.258 59.2285 60.354 59.1445 60.43C59.0605 60.502 58.9545 60.538 58.8265 60.538ZM58.8265 64.06C58.7225 64.06 58.6405 64.032 58.5805 63.976C58.5245 63.92 58.4965 63.842 58.4965 63.742V61.318C58.4965 61.218 58.5245 61.14 58.5805 61.084C58.6405 61.028 58.7225 61 58.8265 61C58.9305 61 59.0125 61.028 59.0725 61.084C59.1365 61.14 59.1685 61.218 59.1685 61.318V63.742C59.1685 63.842 59.1365 63.92 59.0725 63.976C59.0125 64.032 58.9305 64.06 58.8265 64.06Z" fill="url(#paint0_linear_454_2)"/>
<path d="M72.2773 37.7949C72.2773 40.3171 71.8711 42.6868 71.0586 44.9043C70.263 47.1217 69.1289 49.0514 67.6562 50.6934C66.1836 52.3353 64.4147 53.6302 62.3496 54.5781C60.3014 55.526 58.0247 56 55.5195 56H37.1621V50.7949H55.5195C57.3138 50.7949 58.9219 50.4564 60.3438 49.7793C61.7826 49.1022 62.9928 48.1797 63.9746 47.0117C64.9733 45.8268 65.735 44.4473 66.2598 42.873C66.8014 41.2819 67.0723 39.5892 67.0723 37.7949C67.0723 36.0007 66.8014 34.3164 66.2598 32.7422C65.735 31.168 64.9733 29.7969 63.9746 28.6289C62.9928 27.444 61.7826 26.513 60.3438 25.8359C58.9219 25.1419 57.3138 24.7949 55.5195 24.7949H34.5723V56H29.3672V19.5898H55.5195C58.0247 19.5898 60.3014 20.0723 62.3496 21.0371C64.4147 21.985 66.1836 23.2884 67.6562 24.9473C69.1289 26.5892 70.263 28.5189 71.0586 30.7363C71.8711 32.9368 72.2773 35.2897 72.2773 37.7949Z" fill="url(#paint1_linear_454_2)"/>
<g clip-path="url(#clip0_454_2)">
<path d="M49.9787 47.0775C49.1421 47.0775 48.4306 47.6441 48.1821 48.4266H46.7814L41.5808 43.0355C41.4702 42.9209 41.3196 42.8561 41.1625 42.8561H39.6143C39.2874 42.8561 39.0229 43.1302 39.0229 43.4691C39.0229 43.808 39.2874 44.0821 39.6143 44.0821H40.9173L46.1179 49.4732C46.2285 49.5878 46.3792 49.6526 46.5362 49.6526H48.1821C48.4306 50.4351 49.1421 51.0016 49.9787 51.0016C51.0221 51.0016 51.8715 50.1211 51.8715 49.0396C51.8715 47.9581 51.0221 47.0775 49.9787 47.0775ZM49.9787 49.7756C49.5877 49.7756 49.2688 49.445 49.2688 49.0396C49.2688 48.6342 49.5877 48.3036 49.9787 48.3036C50.3698 48.3036 50.6887 48.6342 50.6887 49.0396C50.6887 49.445 50.3698 49.7756 49.9787 49.7756Z" fill="url(#paint2_linear_454_2)" fill-opacity="0.75"/>
<path d="M42.3182 47.0094C41.4816 47.0094 40.77 47.5759 40.5216 48.3584H37.7218C37.3948 48.3584 37.1304 48.6325 37.1304 48.9714C37.1304 49.3104 37.3948 49.5845 37.7218 49.5845H40.5216C40.77 50.367 41.4816 50.9335 42.3182 50.9335C43.3615 50.9335 44.2109 50.053 44.2109 48.9714C44.2109 47.8899 43.3615 47.0094 42.3182 47.0094ZM42.3182 49.7074C41.9736 49.7074 41.6851 49.4516 41.621 49.1143C41.6322 49.0678 41.637 49.0213 41.637 48.9714C41.637 48.9216 41.6306 48.8751 41.621 48.8286C41.6851 48.4913 41.9736 48.2355 42.3182 48.2355C42.7092 48.2355 43.0282 48.5661 43.0282 48.9714C43.0282 49.3768 42.7092 49.7074 42.3182 49.7074Z" fill="url(#paint3_linear_454_2)" fill-opacity="0.75"/>
<path d="M53.0431 41.5071C52.2065 41.5071 51.4949 42.0736 51.2465 42.8561H45.3824C45.0555 42.8561 44.791 43.1302 44.791 43.4691C44.791 43.808 45.0555 44.0822 45.3824 44.0822H51.2465C51.4949 44.8647 52.2065 45.4312 53.0431 45.4312C54.0864 45.4312 54.9358 44.5507 54.9358 43.4691C54.9358 42.3876 54.0864 41.5071 53.0431 41.5071ZM53.0431 44.2051C52.6521 44.2051 52.3331 43.8745 52.3331 43.4691C52.3331 43.0638 52.6521 42.7331 53.0431 42.7331C53.4342 42.7331 53.7531 43.0638 53.7531 43.4691C53.7531 43.8745 53.4342 44.2051 53.0431 44.2051Z" fill="url(#paint4_linear_454_2)" fill-opacity="0.75"/>
<path d="M56.109 35.9698C55.2724 35.9698 54.5609 36.5364 54.3125 37.3189H41.5681C41.411 37.3189 41.2604 37.3837 41.1498 37.4983L35.9796 42.8578H34.6558C34.3289 42.8578 34.0645 43.1319 34.0645 43.4708C34.0645 43.8097 34.3289 44.0838 34.6558 44.0838H36.2248C36.3819 44.0838 36.5325 44.0191 36.6431 43.9044L41.8133 38.5449H54.3125C54.5609 39.3274 55.2724 39.8939 56.109 39.8939C57.1524 39.8939 58.0018 39.0134 58.0018 37.9319C58.0018 36.8504 57.1524 35.9698 56.109 35.9698ZM56.109 38.6679C55.718 38.6679 55.3991 38.3373 55.3991 37.9319C55.3991 37.5265 55.718 37.1959 56.109 37.1959C56.5001 37.1959 56.819 37.5265 56.819 37.9319C56.819 38.3373 56.5001 38.6679 56.109 38.6679Z" fill="url(#paint5_linear_454_2)" fill-opacity="0.75"/>
<path d="M51.2465 31.8513H44.3775C44.0506 31.8513 43.7861 32.1255 43.7861 32.4644C43.7861 32.8033 44.0506 33.0774 44.3775 33.0774H51.2465C51.4949 33.8599 52.2065 34.4264 53.0431 34.4264C54.0864 34.4264 54.9358 33.5459 54.9358 32.4644C54.9358 31.3828 54.0864 30.5023 53.0431 30.5023C52.2065 30.5023 51.4949 31.0688 51.2465 31.8513ZM53.0431 31.7267C53.4341 31.7267 53.7531 32.0573 53.7531 32.4627C53.7531 32.8681 53.4341 33.1987 53.0431 33.1987C52.652 33.1987 52.3331 32.8681 52.3331 32.4627C52.3331 32.0573 52.652 31.7267 53.0431 31.7267Z" fill="url(#paint6_linear_454_2)" fill-opacity="0.75"/>
<path d="M34.6558 33.0758H41.0008C41.1578 33.0758 41.3085 33.011 41.4191 32.8964L46.5219 27.6066H48.1935C48.4515 28.3709 49.1551 28.9224 49.9805 28.9224C51.0238 28.9224 51.8732 28.0419 51.8732 26.9604C51.8732 25.8788 51.0222 25 49.9789 25C49.1295 25 48.4099 25.5831 48.1711 26.3822H46.2767C46.1197 26.3822 45.969 26.447 45.8584 26.5617L40.7556 31.8514H34.6558C34.3289 31.8514 34.0645 32.1255 34.0645 32.4644C34.0645 32.8033 34.3289 33.0774 34.6558 33.0774V33.0758ZM49.9789 26.2244C50.3699 26.2244 50.6888 26.555 50.6888 26.9604C50.6888 27.3658 50.3699 27.6964 49.9789 27.6964C49.5878 27.6964 49.2689 27.3658 49.2689 26.9604C49.2689 26.555 49.5878 26.2244 49.9789 26.2244Z" fill="url(#paint7_linear_454_2)" fill-opacity="0.75"/>
<path d="M37.5914 27.7096H39.5114C39.7598 28.5335 40.4714 29.13 41.3079 29.13C42.3513 29.13 43.2007 28.2029 43.2007 27.0641C43.2007 25.9254 42.3513 25 41.3079 25C40.4714 25 39.7598 25.5965 39.5114 26.4204H37.5914C37.2644 26.4204 37 26.709 37 27.0659C37 27.4227 37.2644 27.7114 37.5914 27.7114V27.7096ZM41.3079 26.2892C41.699 26.2892 42.0179 26.6373 42.0179 27.0641C42.0179 27.4909 41.699 27.839 41.3079 27.839C40.9169 27.839 40.598 27.4909 40.598 27.0641C40.598 26.6373 40.9169 26.2892 41.3079 26.2892Z" fill="url(#paint8_linear_454_2)" fill-opacity="0.75"/>
<path d="M39.6159 34.7886C39.398 34.7886 39.2217 34.9713 39.2217 35.1973C39.2217 35.4232 39.398 35.606 39.6159 35.606H50.6743C50.8922 35.606 51.0685 35.4232 51.0685 35.1973C51.0685 34.9713 50.8922 34.7886 50.6743 34.7886H39.6159Z" fill="url(#paint9_linear_454_2)" fill-opacity="0.75"/>
<path d="M50.6742 41.1266C50.8921 41.1266 51.0684 40.9438 51.0684 40.7179C51.0684 40.492 50.8921 40.3092 50.6742 40.3092H42.9445C42.7266 40.3092 42.5503 40.492 42.5503 40.7179C42.5503 40.9438 42.7266 41.1266 42.9445 41.1266H50.6742Z" fill="url(#paint10_linear_454_2)" fill-opacity="0.75"/>
<path d="M48.562 46.629C48.7799 46.629 48.9562 46.4463 48.9562 46.2203C48.9562 45.9944 48.7799 45.8116 48.562 45.8116H46.0666C45.8487 45.8116 45.6724 45.9944 45.6724 46.2203C45.6724 46.4463 45.8487 46.629 46.0666 46.629H48.562Z" fill="url(#paint11_linear_454_2)" fill-opacity="0.75"/>
<path d="M48.562 30.1385C48.7799 30.1385 48.9562 29.9558 48.9562 29.7299C48.9562 29.5039 48.7799 29.3212 48.562 29.3212H46.0666C45.8487 29.3212 45.6724 29.5039 45.6724 29.7299C45.6724 29.9558 45.8487 30.1385 46.0666 30.1385H48.562Z" fill="url(#paint12_linear_454_2)" fill-opacity="0.75"/>
<path d="M36.8884 30.1385H39.3837C39.6017 30.1385 39.778 29.9558 39.778 29.7299C39.778 29.5039 39.6017 29.3212 39.3837 29.3212H36.8884C36.6704 29.3212 36.4941 29.5039 36.4941 29.7299C36.4941 29.9558 36.6704 30.1385 36.8884 30.1385Z" fill="url(#paint13_linear_454_2)" fill-opacity="0.75"/>
<path d="M37.6399 46.629H40.1352C40.3532 46.629 40.5295 46.4463 40.5295 46.2203C40.5295 45.9944 40.3532 45.8116 40.1352 45.8116H37.6399C37.4219 45.8116 37.2456 45.9944 37.2456 46.2203C37.2456 46.4463 37.4219 46.629 37.6399 46.629Z" fill="url(#paint14_linear_454_2)" fill-opacity="0.75"/>
</g>
<defs>
<linearGradient id="paint0_linear_454_2" x1="40" y1="60.5" x2="60.1287" y2="62.9377" gradientUnits="userSpaceOnUse">
<stop stop-color="#030A3B"/>
<stop offset="1" stop-color="#462167"/>
</linearGradient>
<linearGradient id="paint1_linear_454_2" x1="22.5" y1="12.5" x2="73" y2="63" gradientUnits="userSpaceOnUse">
<stop stop-color="#030A3B"/>
<stop offset="1" stop-color="#462167"/>
</linearGradient>
<linearGradient id="paint2_linear_454_2" x1="45.4472" y1="42.8561" x2="45.4472" y2="51.0016" gradientUnits="userSpaceOnUse">
<stop stop-color="#030A3B"/>
<stop offset="1" stop-color="#462167"/>
</linearGradient>
<linearGradient id="paint3_linear_454_2" x1="40.6706" y1="47.0094" x2="40.6706" y2="50.9335" gradientUnits="userSpaceOnUse">
<stop stop-color="#030A3B"/>
<stop offset="1" stop-color="#462167"/>
</linearGradient>
<linearGradient id="paint4_linear_454_2" x1="49.8634" y1="41.5071" x2="49.8634" y2="45.4312" gradientUnits="userSpaceOnUse">
<stop stop-color="#030A3B"/>
<stop offset="1" stop-color="#462167"/>
</linearGradient>
<linearGradient id="paint5_linear_454_2" x1="46.0331" y1="35.9698" x2="46.0331" y2="44.0838" gradientUnits="userSpaceOnUse">
<stop stop-color="#030A3B"/>
<stop offset="1" stop-color="#462167"/>
</linearGradient>
<linearGradient id="paint6_linear_454_2" x1="49.361" y1="30.5023" x2="49.361" y2="34.4264" gradientUnits="userSpaceOnUse">
<stop stop-color="#030A3B"/>
<stop offset="1" stop-color="#462167"/>
</linearGradient>
<linearGradient id="paint7_linear_454_2" x1="42.9688" y1="25" x2="42.9688" y2="33.0774" gradientUnits="userSpaceOnUse">
<stop stop-color="#030A3B"/>
<stop offset="1" stop-color="#462167"/>
</linearGradient>
<linearGradient id="paint8_linear_454_2" x1="40.1003" y1="25" x2="40.1003" y2="29.13" gradientUnits="userSpaceOnUse">
<stop stop-color="#030A3B"/>
<stop offset="1" stop-color="#462167"/>
</linearGradient>
<linearGradient id="paint9_linear_454_2" x1="45.1451" y1="34.7886" x2="45.1451" y2="35.606" gradientUnits="userSpaceOnUse">
<stop stop-color="#030A3B"/>
<stop offset="1" stop-color="#462167"/>
</linearGradient>
<linearGradient id="paint10_linear_454_2" x1="46.8094" y1="40.3092" x2="46.8094" y2="41.1266" gradientUnits="userSpaceOnUse">
<stop stop-color="#030A3B"/>
<stop offset="1" stop-color="#462167"/>
</linearGradient>
<linearGradient id="paint11_linear_454_2" x1="47.3143" y1="45.8116" x2="47.3143" y2="46.629" gradientUnits="userSpaceOnUse">
<stop stop-color="#030A3B"/>
<stop offset="1" stop-color="#462167"/>
</linearGradient>
<linearGradient id="paint12_linear_454_2" x1="47.3143" y1="29.3212" x2="47.3143" y2="30.1385" gradientUnits="userSpaceOnUse">
<stop stop-color="#030A3B"/>
<stop offset="1" stop-color="#462167"/>
</linearGradient>
<linearGradient id="paint13_linear_454_2" x1="38.1361" y1="29.3212" x2="38.1361" y2="30.1385" gradientUnits="userSpaceOnUse">
<stop stop-color="#030A3B"/>
<stop offset="1" stop-color="#462167"/>
</linearGradient>
<linearGradient id="paint14_linear_454_2" x1="38.8875" y1="45.8116" x2="38.8875" y2="46.629" gradientUnits="userSpaceOnUse">
<stop stop-color="#030A3B"/>
<stop offset="1" stop-color="#462167"/>
</linearGradient>
<clipPath id="clip0_454_2">
<rect width="27" height="26" fill="white" transform="translate(31 25)"/>
</clipPath>
</defs>
</svg>
